<?xml version="1.0" encoding="utf-8"?>
<!-- Generator: Adobe Illustrator 21.0.0, SVG Export Plug-In . SVG Version: 6.00 Build 0)  -->
<svg version="1.1" id="Layer_1" xmlns="http://www.w3.org/2000/svg" xmlns:xlink="http://www.w3.org/1999/xlink" x="0px" y="0px"
	 viewBox="0 0 466 200" style="enable-background:new 0 0 466 200;" xml:space="preserve">
<style type="text/css">
	.st0{fill:#FFFFFF;}
	.st1{fill:#FFFFFF;stroke:#000000;stroke-miterlimit:10;}
	.st2{font-family:'MyriadPro-Regular';}
	.st3{font-size:16px;}
	.st4{fill:#717171;stroke:#000000;stroke-miterlimit:10;}
	.st5{fill:none;stroke:#000000;stroke-miterlimit:10;}
	.st6{font-size:9.0659px;}
	.st7{fill:#4D4D4D;}
	.st8{font-size:12px;}
	.st9{font-size:13.3818px;}
</style>
<rect x="1" y="1" class="st0" width="463.6" height="198"/>
<rect x="260.5" y="21.5" class="st1" width="105" height="172"/>
<rect x="255.5" y="16.5" class="st1" width="105" height="172"/>
<rect x="250" y="12" class="st1" width="105" height="172"/>
<text transform="matrix(1 0 0 1 37 71)" class="st2 st3">Category</text>
<polygon class="st4" points="189.5,9.5 189.7,162 265,60 264.3,50.7 "/>
<text transform="matrix(1 0 0 1 263 37)" class="st2 st3">Stripboards</text>
<text transform="matrix(1 0 0 1 64 33)" class="st2 st3">Breakdowns</text>
<rect x="18.5" y="9.5" class="st5" width="171" height="153"/>
<path class="st5" d="M90.6,149.5H44.5c-6.6,0-12-5.4-12-12v-75c0-6.6,5.4-12,12-12h46.1c6.6,0,12,5.4,12,12v75
	C102.6,144.1,97.2,149.5,90.6,149.5z"/>
<g>
	<text transform="matrix(1 0 0 1 45.151 100.994)" class="st2 st6">Elem</text>
	<polygon class="st5" points="62.6,83.6 45.7,83.6 37.3,98.2 45.7,112.8 62.6,112.8 71,98.2 	"/>
</g>
<text transform="matrix(1 0 0 1 267.0505 93)" class="st7 st2 st8">Breakdown ID</text>
<text transform="matrix(1 0 0 1 267.0505 124)" class="st7 st2 st8">Breakdown ID</text>
<text transform="matrix(1 0 0 1 267.0505 155)" class="st7 st2 st8">Breakdown ID</text>
<rect x="257.5" y="46.5" class="st1" width="90" height="24"/>
<g>
	<text transform="matrix(1 0 0 1 388.3633 43.0547)" class="st2 st9">Calendar</text>
	<rect x="377.8" y="28" class="st5" width="70.3" height="68.6"/>
	<line class="st5" x1="377" y1="47.2" x2="447.3" y2="47.2"/>
	<line class="st5" x1="395" y1="46.8" x2="395" y2="96.2"/>
	<line class="st5" x1="413.4" y1="46.8" x2="413.4" y2="97"/>
	<line class="st5" x1="431.8" y1="46.8" x2="431.8" y2="97"/>
	<line class="st5" x1="377.4" y1="62.7" x2="447.7" y2="62.7"/>
	<line class="st5" x1="377.4" y1="79.4" x2="447.7" y2="79.4"/>
</g>
<rect x="257.5" y="76.5" class="st5" width="90" height="24"/>
<rect x="257.5" y="108.5" class="st5" width="90" height="24"/>
<rect x="257.5" y="139.5" class="st5" width="90" height="24"/>
<text transform="matrix(1 0 0 1 266.0505 62)" class="st7 st2 st8">Breakdown ID</text>
<line class="st5" x1="377.5" y1="37.5" x2="354.5" y2="32.5"/>
<text transform="matrix(1 0 0 1 112 71)" class="st2 st3">Category</text>
<path class="st5" d="M165.6,149.5h-46.1c-6.6,0-12-5.4-12-12v-75c0-6.6,5.4-12,12-12h46.1c6.6,0,12,5.4,12,12v75
	C177.6,144.1,172.2,149.5,165.6,149.5z"/>
<g>
	<text transform="matrix(1 0 0 1 69.4844 126.3273)" class="st2 st6">Elem</text>
	<polygon class="st5" points="86.9,108.9 70.1,108.9 61.6,123.5 70.1,138.1 86.9,138.1 95.4,123.5 	"/>
</g>
<g>
	<text transform="matrix(1 0 0 1 120.8177 101.6606)" class="st2 st6">Elem</text>
	<polygon class="st5" points="138.3,84.2 121.4,84.2 113,98.8 121.4,113.5 138.3,113.5 146.7,98.8 	"/>
</g>
<g>
	<text transform="matrix(1 0 0 1 145.151 126.994)" class="st2 st6">Elem</text>
	<polygon class="st5" points="162.6,109.6 145.7,109.6 137.3,124.2 145.7,138.8 162.6,138.8 171,124.2 	"/>
</g>
</svg>
