<?xml version="1.0" encoding="utf-8"?>
<!-- Generator: Adobe Illustrator 21.0.0, SVG Export Plug-In . SVG Version: 6.00 Build 0)  -->
<svg version="1.1" xmlns="http://www.w3.org/2000/svg" xmlns:xlink="http://www.w3.org/1999/xlink" x="0px" y="0px"
	 viewBox="0 0 537 205" style="enable-background:new 0 0 537 205;" xml:space="preserve">
<style type="text/css">
	.st0{fill:#FFFFFF;}
	.st1{fill:#A6FFA5;}
	.st2{fill:#FFFF9E;}
	.st3{fill:#B9D1FF;}
	.st4{fill:#FFC4C4;}
	.st5{fill:#333333;}
	.st6{fill:#4D4D4D;}
</style>
<g id="Layer_2">
	<rect x="1" y="1" class="st0" width="535" height="203"/>
</g>
<g id="Layer_3">
	<g>
		<path d="M225.6,10.7v26.5c0,0.9,0,1.9,0.1,3c0.1,1.2,0.3,2.3,0.6,3.6c0.3,1.2,0.8,2.4,1.4,3.6c0.6,1.2,1.4,2.2,2.4,3.2
			c1,0.9,2.3,1.7,3.8,2.2c1.5,0.6,3.3,0.8,5.5,0.8c2.7,0,5-0.4,6.9-1.1c1.8-0.8,3.3-1.9,4.5-3.3c1.1-1.4,2-3.2,2.4-5.2
			c0.5-2,0.7-4.3,0.7-6.8V10.7h2.7v26.5c0,2.6-0.3,5.1-0.8,7.4c-0.6,2.3-1.5,4.3-2.8,6c-1.3,1.7-3.1,3-5.3,4c-2.2,1-5,1.5-8.3,1.5
			c-2.6,0-4.8-0.3-6.7-1c-1.9-0.7-3.4-1.5-4.6-2.6c-1.2-1.1-2.2-2.3-2.9-3.6c-0.7-1.4-1.2-2.7-1.6-4.1c-0.4-1.4-0.6-2.7-0.7-4
			c-0.1-1.3-0.1-2.4-0.1-3.4V10.7H225.6z"/>
		<path d="M263.2,23.1h2.4V30h0.1c0.4-1.2,1-2.3,1.8-3.2c0.8-0.9,1.7-1.7,2.7-2.4c1-0.7,2.1-1.2,3.3-1.5c1.2-0.3,2.4-0.5,3.7-0.5
			c1.9,0,3.4,0.2,4.7,0.7c1.3,0.5,2.4,1.1,3.2,1.8c0.8,0.7,1.5,1.6,2,2.5c0.5,0.9,0.8,1.9,1,2.8c0.2,1,0.3,1.9,0.4,2.8
			c0,0.9,0.1,1.7,0.1,2.3V55h-2.4V34.9c0-0.8-0.1-1.8-0.2-3c-0.1-1.2-0.5-2.3-1.1-3.4c-0.6-1.1-1.5-2-2.7-2.8
			c-1.2-0.8-2.9-1.2-5.1-1.2c-1.8,0-3.4,0.3-4.8,1c-1.4,0.7-2.6,1.6-3.6,2.8c-1,1.2-1.7,2.6-2.3,4.2c-0.5,1.6-0.8,3.4-0.8,5.4V55
			h-2.4V23.1z"/>
		<path d="M294.8,17.1v-6.4h2.4v6.4H294.8z M294.8,55V23.1h2.4V55H294.8z"/>
		<path d="M316.1,55h-2.9l-12.8-31.9h2.7l11.5,29.1h0.1l10.8-29.1h2.6L316.1,55z"/>
		<path d="M330.5,39.4v0.4c0,1.9,0.2,3.6,0.7,5.3c0.5,1.7,1.2,3.2,2.2,4.5c1,1.3,2.2,2.3,3.7,3s3.2,1.1,5.1,1.1
			c3.2,0,5.7-0.8,7.6-2.5c1.9-1.7,3.1-4,3.9-7h2.4c-0.7,3.7-2.2,6.6-4.6,8.6c-2.3,2-5.4,3-9.3,3c-2.4,0-4.4-0.4-6.2-1.3
			s-3.2-2-4.4-3.5c-1.2-1.5-2.1-3.2-2.6-5.2c-0.6-2-0.9-4.2-0.9-6.5c0-2.2,0.3-4.4,0.9-6.4c0.6-2,1.5-3.8,2.7-5.4
			c1.2-1.5,2.7-2.8,4.5-3.7c1.8-0.9,3.9-1.4,6.4-1.4c2.2,0,4.2,0.4,5.9,1.2c1.7,0.8,3.2,2,4.3,3.4c1.2,1.4,2,3.1,2.6,5
			c0.6,1.9,0.9,3.9,0.9,6c0,0.2,0,0.4,0,0.7c0,0.3,0,0.5,0,0.7H330.5z M353.9,37.3c-0.1-1.7-0.4-3.4-0.9-4.9
			c-0.5-1.5-1.2-2.9-2.2-4.1c-1-1.2-2.2-2.1-3.5-2.8c-1.4-0.7-3-1.1-4.8-1.1c-1.9,0-3.6,0.4-5,1.1c-1.5,0.7-2.7,1.7-3.7,2.9
			c-1,1.2-1.8,2.6-2.3,4.1c-0.5,1.6-0.9,3.2-1,4.8H353.9z"/>
		<path d="M363.3,30.2h0.2c0.3-1,0.8-2,1.6-2.9c0.8-0.9,1.7-1.7,2.8-2.4c1.1-0.7,2.3-1.2,3.7-1.5c1.3-0.4,2.7-0.5,4.2-0.5v2.4
			c-1.2-0.2-2.7,0-4.2,0.4c-1.6,0.4-3.1,1.3-4.6,2.7c-0.6,0.6-1.1,1.2-1.5,1.8c-0.4,0.6-0.8,1.2-1.1,1.9c-0.3,0.7-0.5,1.5-0.7,2.4
			s-0.3,1.9-0.3,3.1V55h-2.4V23.1h2.4V30.2z"/>
		<path d="M378.7,44.4c0.1,1.5,0.4,2.8,1,3.9c0.6,1.1,1.3,2.1,2.3,2.9c0.9,0.8,2,1.4,3.3,1.8c1.2,0.4,2.6,0.6,4,0.6
			c1,0,2.1-0.1,3.3-0.3c1.2-0.2,2.3-0.5,3.3-1c1-0.5,1.8-1.2,2.5-2.1c0.7-0.9,1-2,1-3.4c0-1.8-0.5-3.1-1.6-4
			c-1.1-0.9-2.4-1.6-4.1-2.1c-1.6-0.5-3.4-0.9-5.3-1.2c-1.9-0.3-3.6-0.8-5.3-1.4c-1.6-0.6-3-1.5-4.1-2.6c-1.1-1.1-1.6-2.8-1.6-5
			c0-1.6,0.4-2.9,1.1-3.9c0.7-1.1,1.6-1.9,2.7-2.5c1.1-0.6,2.3-1.1,3.7-1.3c1.4-0.3,2.7-0.4,4.1-0.4c1.7,0,3.2,0.2,4.7,0.6
			c1.4,0.4,2.7,1,3.8,1.8c1.1,0.8,1.9,1.9,2.5,3.2c0.6,1.3,0.9,2.8,0.9,4.7h-2.4c0-1.4-0.2-2.7-0.7-3.7c-0.5-1-1.1-1.9-2-2.5
			c-0.8-0.6-1.9-1.1-3-1.4s-2.4-0.5-3.7-0.5c-1.1,0-2.2,0.1-3.3,0.3c-1.1,0.2-2.1,0.6-2.9,1.1s-1.6,1.1-2.1,1.9
			c-0.6,0.8-0.8,1.7-0.8,2.9c0,1.3,0.3,2.3,0.9,3.1c0.6,0.8,1.4,1.4,2.4,1.9c1,0.5,2.1,0.9,3.4,1.1c1.3,0.3,2.5,0.6,3.8,0.9
			c1.6,0.3,3,0.6,4.4,1c1.4,0.4,2.6,0.9,3.6,1.6c1,0.7,1.8,1.6,2.4,2.6c0.6,1.1,0.9,2.4,0.9,4.1c0,1.7-0.4,3.2-1.2,4.3
			c-0.8,1.1-1.8,2-3,2.7s-2.5,1.2-4,1.4c-1.5,0.3-2.9,0.4-4.3,0.4c-1.8,0-3.5-0.2-5.1-0.7c-1.5-0.5-2.9-1.2-4.1-2.2
			c-1.2-1-2.1-2.2-2.7-3.6c-0.7-1.4-1-3-1.1-4.9H378.7z"/>
		<path d="M427.6,48.7h-0.1c-0.4,1-0.9,1.9-1.6,2.7c-0.7,0.8-1.6,1.6-2.6,2.3c-1,0.7-2.2,1.2-3.4,1.5c-1.3,0.4-2.7,0.6-4.2,0.6
			c-3.4,0-6-0.7-7.9-2.2c-1.9-1.5-2.8-3.7-2.8-6.8c0-1.9,0.4-3.4,1.1-4.6c0.7-1.2,1.7-2.1,2.8-2.8c1.1-0.7,2.4-1.2,3.8-1.5
			c1.4-0.3,2.7-0.5,4-0.6l3.7-0.3c1.7-0.1,3-0.3,4-0.6c1-0.3,1.7-0.6,2.2-1.1c0.5-0.5,0.8-1.1,0.9-1.8c0.1-0.7,0.2-1.7,0.2-2.8
			c0-0.9-0.2-1.7-0.5-2.4c-0.3-0.7-0.8-1.4-1.5-2c-0.7-0.6-1.6-1-2.7-1.4c-1.1-0.3-2.5-0.5-4.1-0.5c-2.9,0-5.2,0.7-6.9,2.1
			c-1.8,1.4-2.7,3.5-2.9,6.4h-2.4c0.2-3.5,1.3-6.1,3.4-7.9c2.1-1.8,5.1-2.6,8.9-2.6c3.8,0,6.6,0.8,8.4,2.3c1.8,1.5,2.6,3.5,2.6,5.9
			v18.5c0,0.5,0,0.9,0,1.4c0,0.5,0.1,0.9,0.2,1.2s0.3,0.7,0.6,0.9c0.3,0.2,0.7,0.3,1.2,0.3c0.4,0,1-0.1,1.7-0.2v2
			c-0.6,0.2-1.3,0.2-1.9,0.2c-1,0-1.7-0.1-2.3-0.4s-1-0.6-1.3-1c-0.3-0.4-0.5-0.9-0.6-1.5c-0.1-0.6-0.2-1.2-0.2-1.8V48.7z
			 M427.6,36.9c-0.6,0.7-1.5,1.2-2.6,1.4c-1.2,0.2-2.5,0.4-3.9,0.6l-4,0.4c-1.2,0.1-2.3,0.3-3.5,0.5c-1.2,0.2-2.2,0.6-3.1,1.1
			c-0.9,0.5-1.7,1.3-2.3,2.2c-0.6,0.9-0.9,2.1-0.9,3.6c0,2.4,0.7,4.1,2.2,5.2c1.5,1.1,3.5,1.7,6.1,1.7c2.7,0,4.8-0.5,6.4-1.5
			c1.6-1,2.8-2.1,3.6-3.3c0.8-1.3,1.4-2.5,1.6-3.7c0.2-1.2,0.3-2,0.3-2.4V36.9z"/>
		<path d="M439.4,10.7V55h-2.4V10.7H439.4z"/>
		<path d="M230.4,110.9c0,2,0.3,3.6,1,5c0.7,1.4,1.6,2.5,2.8,3.4c1.2,0.9,2.6,1.5,4.1,1.9c1.6,0.4,3.3,0.6,5.1,0.6
			c2,0,3.6-0.2,5-0.7c1.4-0.5,2.5-1,3.4-1.8c0.9-0.7,1.5-1.5,1.9-2.5c0.4-0.9,0.6-1.9,0.6-2.8c0-2-0.4-3.4-1.3-4.4
			c-0.9-0.9-1.9-1.6-2.9-2c-1.8-0.7-3.9-1.3-6.4-1.9c-2.4-0.6-5.4-1.4-9-2.3c-2.2-0.6-4-1.3-5.5-2.3c-1.5-0.9-2.6-2-3.5-3.1
			c-0.9-1.2-1.5-2.4-1.8-3.7c-0.4-1.3-0.5-2.6-0.5-4c0-2.6,0.5-4.8,1.6-6.7c1.1-1.9,2.5-3.5,4.3-4.7c1.8-1.2,3.8-2.2,6-2.8
			c2.3-0.6,4.5-0.9,6.8-0.9c2.7,0,5.2,0.3,7.6,1c2.4,0.7,4.5,1.7,6.3,3.1c1.8,1.4,3.2,3.1,4.3,5.1c1.1,2,1.6,4.4,1.6,7.1h-9
			c-0.2-3.3-1.4-5.7-3.4-7c-2-1.4-4.6-2.1-7.7-2.1c-1.1,0-2.1,0.1-3.2,0.3c-1.1,0.2-2.1,0.6-3,1.1c-0.9,0.5-1.7,1.2-2.3,2.1
			c-0.6,0.9-0.9,1.9-0.9,3.2c0,1.8,0.6,3.3,1.7,4.3c1.1,1,2.6,1.8,4.4,2.3c0.2,0,0.9,0.3,2.3,0.6c1.3,0.4,2.8,0.8,4.4,1.2
			c1.6,0.4,3.2,0.9,4.8,1.3c1.6,0.4,2.7,0.7,3.3,0.9c1.7,0.5,3.1,1.2,4.4,2.2c1.2,0.9,2.3,2,3.1,3.1c0.8,1.2,1.5,2.4,1.9,3.8
			c0.4,1.3,0.6,2.7,0.6,4c0,2.9-0.6,5.3-1.8,7.4c-1.2,2-2.7,3.7-4.6,5c-1.9,1.3-4.1,2.2-6.6,2.8c-2.4,0.6-4.9,0.9-7.5,0.9
			c-2.9,0-5.7-0.4-8.3-1.1c-2.6-0.7-4.8-1.8-6.8-3.3c-1.9-1.5-3.5-3.4-4.6-5.7c-1.2-2.3-1.8-5.1-1.8-8.2H230.4z"/>
		<path d="M294.2,103.2c-0.3-2.3-1.3-4-2.8-5.2c-1.5-1.2-3.4-1.8-5.7-1.8c-1.1,0-2.2,0.2-3.4,0.5c-1.2,0.4-2.3,1-3.3,2
			c-1,1-1.8,2.4-2.5,4.1c-0.7,1.8-1,4-1,6.9c0,1.5,0.2,3.1,0.5,4.6c0.4,1.5,0.9,2.9,1.7,4.1c0.8,1.2,1.8,2.2,3.1,2.9
			c1.2,0.7,2.8,1.1,4.5,1.1c2.4,0,4.4-0.7,5.9-2.2c1.6-1.5,2.5-3.6,2.9-6.3h8.2c-0.8,4.8-2.6,8.6-5.5,11.1
			c-2.9,2.6-6.8,3.9-11.6,3.9c-2.9,0-5.5-0.5-7.7-1.5c-2.2-1-4.1-2.3-5.7-4c-1.5-1.7-2.7-3.7-3.5-6.1c-0.8-2.4-1.2-4.9-1.2-7.6
			c0-2.8,0.4-5.4,1.2-7.8c0.8-2.4,1.9-4.6,3.5-6.4c1.5-1.8,3.4-3.2,5.7-4.2c2.3-1,5-1.5,8-1.5c2.2,0,4.2,0.3,6.2,0.8
			c1.9,0.6,3.7,1.4,5.2,2.5c1.5,1.1,2.7,2.5,3.7,4.2c1,1.7,1.5,3.7,1.7,6H294.2z"/>
		<path d="M307.9,76.6h8.2v19.1h0.1c1-1.7,2.5-3.1,4.5-4.2c2-1.1,4.2-1.7,6.7-1.7c4.1,0,7.3,1.1,9.6,3.2c2.4,2.1,3.5,5.3,3.5,9.5
			V128h-8.2v-23.4c-0.1-2.9-0.7-5.1-1.9-6.4c-1.2-1.3-3-2-5.4-2c-1.4,0-2.6,0.3-3.7,0.8c-1.1,0.5-2,1.2-2.8,2.1
			c-0.8,0.9-1.4,1.9-1.8,3.1c-0.4,1.2-0.6,2.5-0.6,3.8v22h-8.2V76.6z"/>
		<path d="M354.3,111.5c0,1.4,0.2,2.8,0.6,4.2c0.4,1.3,1,2.5,1.8,3.5c0.8,1,1.8,1.8,3.1,2.4c1.2,0.6,2.7,0.9,4.5,0.9
			c2.4,0,4.3-0.5,5.8-1.5c1.5-1,2.6-2.6,3.3-4.6h7.8c-0.4,2-1.2,3.8-2.2,5.4s-2.3,2.9-3.8,4c-1.5,1.1-3.2,1.9-5,2.4
			c-1.8,0.6-3.8,0.8-5.8,0.8c-2.9,0-5.5-0.5-7.8-1.4c-2.3-1-4.2-2.3-5.7-4c-1.6-1.7-2.7-3.8-3.5-6.2c-0.8-2.4-1.2-5-1.2-7.9
			c0-2.6,0.4-5.1,1.3-7.5c0.8-2.4,2-4.5,3.6-6.3c1.6-1.8,3.4-3.2,5.7-4.3c2.2-1.1,4.7-1.6,7.5-1.6c2.9,0,5.6,0.6,7.9,1.8
			c2.3,1.2,4.3,2.8,5.8,4.9c1.5,2,2.7,4.3,3.3,6.9c0.7,2.6,0.9,5.3,0.5,8.1H354.3z M373.5,106.1c-0.1-1.3-0.4-2.5-0.8-3.7
			c-0.5-1.2-1.1-2.2-1.9-3.1c-0.8-0.9-1.8-1.6-2.9-2.2c-1.1-0.6-2.4-0.8-3.8-0.8c-1.4,0-2.7,0.3-3.9,0.8c-1.2,0.5-2.2,1.2-3,2.1
			c-0.8,0.9-1.5,1.9-2,3.1c-0.5,1.2-0.8,2.5-0.8,3.9H373.5z"/>
		<path d="M422.3,128h-7.8v-5h-0.1c-1.1,2.2-2.7,3.7-4.8,4.6s-4.3,1.4-6.7,1.4c-2.9,0-5.5-0.5-7.7-1.5c-2.2-1-4-2.4-5.4-4.2
			c-1.4-1.8-2.5-3.9-3.2-6.3c-0.7-2.4-1.1-5-1.1-7.8c0-3.4,0.5-6.3,1.4-8.7c0.9-2.4,2.1-4.5,3.6-6c1.5-1.6,3.2-2.7,5.2-3.5
			c1.9-0.7,3.9-1.1,5.9-1.1c1.2,0,2.3,0.1,3.5,0.3c1.2,0.2,2.4,0.6,3.5,1c1.1,0.5,2.1,1.1,3.1,1.8c0.9,0.7,1.7,1.6,2.3,2.6h0.1v-19
			h8.2V128z M393.6,109.8c0,1.6,0.2,3.1,0.6,4.7c0.4,1.5,1,2.9,1.9,4.1c0.8,1.2,1.9,2.2,3.2,2.9c1.3,0.7,2.8,1.1,4.6,1.1
			c1.8,0,3.4-0.4,4.7-1.2c1.3-0.8,2.4-1.8,3.2-3c0.8-1.2,1.5-2.7,1.9-4.2c0.4-1.6,0.6-3.2,0.6-4.8c0-4.1-0.9-7.3-2.8-9.6
			c-1.8-2.3-4.4-3.5-7.5-3.5c-1.9,0-3.5,0.4-4.9,1.2s-2.4,1.8-3.2,3.1c-0.8,1.3-1.4,2.7-1.8,4.3
			C393.8,106.5,393.6,108.1,393.6,109.8z"/>
		<path d="M462.5,128h-8.1v-5.2h-0.1c-1,1.9-2.5,3.4-4.5,4.5c-2,1.1-4,1.7-6.1,1.7c-4.9,0-8.4-1.2-10.6-3.6c-2.2-2.4-3.3-6.1-3.3-11
			V90.8h8.2v22.8c0,3.3,0.6,5.6,1.9,6.9c1.2,1.3,3,2,5.3,2c1.7,0,3.2-0.3,4.3-0.8c1.2-0.5,2.1-1.2,2.8-2.1c0.7-0.9,1.2-2,1.5-3.2
			c0.3-1.2,0.5-2.6,0.5-4V90.8h8.2V128z"/>
		<path d="M469.9,76.6h8.2V128h-8.2V76.6z"/>
		<path d="M492.2,111.5c0,1.4,0.2,2.8,0.6,4.2c0.4,1.3,1,2.5,1.8,3.5c0.8,1,1.8,1.8,3.1,2.4c1.2,0.6,2.7,0.9,4.5,0.9
			c2.4,0,4.3-0.5,5.8-1.5c1.5-1,2.6-2.6,3.3-4.6h7.8c-0.4,2-1.2,3.8-2.2,5.4s-2.3,2.9-3.8,4c-1.5,1.1-3.2,1.9-5,2.4
			c-1.8,0.6-3.8,0.8-5.8,0.8c-2.9,0-5.5-0.5-7.8-1.4c-2.3-1-4.2-2.3-5.7-4c-1.6-1.7-2.7-3.8-3.5-6.2c-0.8-2.4-1.2-5-1.2-7.9
			c0-2.6,0.4-5.1,1.3-7.5c0.8-2.4,2-4.5,3.6-6.3c1.6-1.8,3.4-3.2,5.7-4.3c2.2-1.1,4.7-1.6,7.5-1.6c2.9,0,5.6,0.6,7.9,1.8
			c2.3,1.2,4.3,2.8,5.8,4.9c1.5,2,2.7,4.3,3.3,6.9c0.7,2.6,0.9,5.3,0.5,8.1H492.2z M511.4,106.1c-0.1-1.3-0.4-2.5-0.8-3.7
			c-0.5-1.2-1.1-2.2-1.9-3.1c-0.8-0.9-1.8-1.6-2.9-2.2c-1.1-0.6-2.4-0.8-3.8-0.8c-1.4,0-2.7,0.3-3.9,0.8c-1.2,0.5-2.2,1.2-3,2.1
			c-0.8,0.9-1.5,1.9-2,3.1c-0.5,1.2-0.8,2.5-0.8,3.9H511.4z"/>
		<path d="M251.8,162.4c-0.1-1.9-0.5-3.6-1.2-5c-0.7-1.4-1.7-2.6-2.9-3.5c-1.2-1-2.7-1.7-4.4-2.1c-1.7-0.5-3.6-0.7-5.6-0.7
			c-1.2,0-2.6,0.1-4,0.4c-1.4,0.3-2.7,0.8-4,1.5c-1.2,0.7-2.2,1.7-3,2.9c-0.8,1.2-1.2,2.7-1.2,4.6c0,1.8,0.4,3.2,1.3,4.3
			c0.9,1.1,2,2,3.4,2.7c1.4,0.7,3,1.2,4.8,1.6c1.8,0.4,3.7,0.8,5.5,1.2c1.9,0.4,3.8,0.8,5.5,1.3c1.8,0.5,3.4,1.2,4.8,2.1
			c1.4,0.9,2.6,2,3.4,3.5c0.9,1.4,1.3,3.2,1.3,5.4c0,2.3-0.5,4.3-1.5,5.8c-1,1.6-2.2,2.9-3.8,3.8c-1.5,1-3.2,1.7-5,2.1
			c-1.8,0.4-3.6,0.7-5.3,0.7c-2.6,0-5-0.3-7.3-0.8c-2.3-0.6-4.3-1.5-6-2.7c-1.7-1.3-3-2.9-4-4.9c-1-2-1.4-4.4-1.4-7.3h2.7
			c-0.1,2.4,0.2,4.5,1.1,6.2c0.8,1.7,2,3,3.4,4.1c1.5,1.1,3.2,1.9,5.2,2.3c2,0.5,4.1,0.7,6.3,0.7c1.3,0,2.7-0.2,4.2-0.5
			c1.5-0.3,2.9-0.9,4.2-1.7c1.3-0.8,2.3-1.8,3.2-3.1c0.8-1.3,1.3-2.9,1.3-4.8c0-1.9-0.4-3.4-1.3-4.6c-0.9-1.2-2-2.1-3.4-2.9
			c-1.4-0.7-3-1.3-4.8-1.7c-1.8-0.4-3.6-0.8-5.5-1.2c-1.9-0.4-3.7-0.8-5.5-1.3c-1.8-0.5-3.4-1.2-4.8-2c-1.4-0.8-2.5-1.9-3.4-3.3
			c-0.9-1.3-1.3-3.1-1.3-5.2s0.4-3.9,1.3-5.4c0.9-1.5,2-2.7,3.5-3.7c1.4-0.9,3-1.6,4.8-2c1.8-0.4,3.5-0.7,5.3-0.7
			c2.3,0,4.5,0.3,6.5,0.8c2,0.5,3.8,1.3,5.3,2.4c1.5,1.1,2.7,2.5,3.6,4.2c0.9,1.7,1.4,3.8,1.5,6.3H251.8z"/>
		<path d="M272.6,164.2h-6.9v22.3c0,1.3,0.1,2.3,0.4,3c0.3,0.7,0.7,1.3,1.3,1.7c0.6,0.4,1.3,0.6,2.2,0.7c0.8,0.1,1.8,0.1,2.9,0.1v2
			c-1.2,0.1-2.4,0.1-3.5,0c-1.1-0.1-2.1-0.4-3-0.9c-0.9-0.5-1.6-1.3-2.1-2.3c-0.5-1-0.7-2.5-0.7-4.3v-22.3h-5.9v-2h5.9v-9.9h2.4v9.9
			h6.9V164.2z"/>
		<path d="M297.2,187.7h-0.1c-0.4,1-0.9,1.9-1.6,2.7c-0.7,0.8-1.6,1.6-2.6,2.3c-1,0.7-2.2,1.2-3.4,1.5c-1.3,0.4-2.7,0.6-4.2,0.6
			c-3.4,0-6-0.7-7.9-2.2s-2.8-3.7-2.8-6.8c0-1.9,0.4-3.4,1.1-4.6c0.7-1.2,1.7-2.1,2.8-2.8c1.1-0.7,2.4-1.2,3.8-1.5
			c1.4-0.3,2.7-0.5,4-0.6l3.7-0.3c1.7-0.1,3-0.3,4-0.6c1-0.3,1.7-0.6,2.2-1.1c0.5-0.5,0.8-1.1,0.9-1.8c0.1-0.7,0.2-1.7,0.2-2.8
			c0-0.9-0.2-1.7-0.5-2.4c-0.3-0.7-0.8-1.4-1.5-2c-0.7-0.6-1.6-1-2.7-1.4c-1.1-0.3-2.5-0.5-4.1-0.5c-2.9,0-5.2,0.7-6.9,2.1
			c-1.8,1.4-2.7,3.5-2.9,6.4h-2.4c0.2-3.5,1.3-6.1,3.4-7.9c2.1-1.8,5.1-2.6,8.9-2.6c3.8,0,6.6,0.8,8.4,2.3c1.8,1.5,2.6,3.5,2.6,5.9
			v18.5c0,0.5,0,0.9,0,1.4c0,0.5,0.1,0.9,0.2,1.2s0.3,0.7,0.6,0.9c0.3,0.2,0.7,0.3,1.2,0.3c0.4,0,1-0.1,1.7-0.2v2
			c-0.6,0.2-1.3,0.2-1.9,0.2c-1,0-1.7-0.1-2.3-0.4s-1-0.6-1.3-1c-0.3-0.4-0.5-0.9-0.6-1.5c-0.1-0.6-0.2-1.2-0.2-1.8V187.7z
			 M297.2,175.9c-0.6,0.7-1.5,1.2-2.6,1.4c-1.2,0.2-2.5,0.4-3.9,0.6l-4,0.4c-1.2,0.1-2.3,0.3-3.5,0.5c-1.2,0.2-2.2,0.6-3.1,1.1
			c-0.9,0.5-1.7,1.3-2.3,2.2c-0.6,0.9-0.9,2.1-0.9,3.6c0,2.4,0.7,4.1,2.2,5.2c1.5,1.1,3.5,1.7,6.1,1.7c2.7,0,4.8-0.5,6.4-1.5
			c1.6-1,2.8-2.1,3.6-3.3c0.8-1.3,1.4-2.5,1.6-3.7c0.2-1.2,0.3-2,0.3-2.4V175.9z"/>
		<path d="M306.4,162.1h2.4v6.8h0.1c0.4-1.2,1-2.3,1.8-3.2c0.8-0.9,1.7-1.7,2.7-2.4c1-0.7,2.1-1.2,3.3-1.5c1.2-0.3,2.4-0.5,3.7-0.5
			c1.9,0,3.4,0.2,4.7,0.7c1.3,0.5,2.4,1.1,3.2,1.8c0.8,0.7,1.5,1.6,2,2.5c0.5,0.9,0.8,1.9,1,2.8c0.2,1,0.3,1.9,0.4,2.8
			c0,0.9,0.1,1.7,0.1,2.3V194h-2.4v-20.1c0-0.8-0.1-1.8-0.2-3c-0.1-1.2-0.5-2.3-1.1-3.4c-0.6-1.1-1.5-2-2.7-2.8
			c-1.2-0.8-2.9-1.2-5.1-1.2c-1.8,0-3.4,0.3-4.8,1c-1.4,0.7-2.6,1.6-3.6,2.8c-1,1.2-1.7,2.6-2.3,4.2c-0.5,1.6-0.8,3.4-0.8,5.4V194
			h-2.4V162.1z"/>
		<path d="M362.3,187.2h-0.1c-1.3,2.5-3,4.4-5,5.7s-4.4,1.9-7.3,1.9c-2.4,0-4.5-0.5-6.2-1.4s-3.2-2.1-4.3-3.7
			c-1.1-1.5-1.9-3.3-2.5-5.3c-0.5-2-0.8-4.1-0.8-6.3c0-2.4,0.3-4.6,0.9-6.6s1.5-3.8,2.6-5.3c1.2-1.5,2.7-2.7,4.4-3.5
			c1.8-0.9,3.9-1.3,6.3-1.3c1.3,0,2.5,0.2,3.8,0.5c1.2,0.4,2.4,0.9,3.4,1.5c1.1,0.7,2,1.5,2.8,2.5c0.8,1,1.4,2.1,1.8,3.3h0.1v-19.5
			h2.4V194h-2.4V187.2z M350.5,192.7c2,0,3.8-0.4,5.2-1.2c1.5-0.8,2.7-1.9,3.7-3.3c1-1.4,1.7-2.9,2.2-4.7c0.5-1.8,0.7-3.5,0.7-5.4
			c0-1.9-0.2-3.7-0.7-5.4c-0.5-1.8-1.2-3.3-2.1-4.7c-1-1.4-2.2-2.5-3.7-3.3c-1.5-0.8-3.3-1.2-5.3-1.2c-2.1,0-3.9,0.4-5.4,1.2
			s-2.7,1.9-3.7,3.3c-1,1.4-1.7,2.9-2.1,4.7c-0.4,1.8-0.7,3.6-0.7,5.5c0,1.9,0.2,3.7,0.7,5.4c0.5,1.8,1.2,3.3,2.2,4.7
			c1,1.4,2.2,2.4,3.7,3.3C346.6,192.3,348.4,192.7,350.5,192.7z"/>
		<path d="M392.2,187.7H392c-0.4,1-0.9,1.9-1.6,2.7c-0.7,0.8-1.6,1.6-2.6,2.3c-1,0.7-2.2,1.2-3.4,1.5c-1.3,0.4-2.7,0.6-4.2,0.6
			c-3.4,0-6-0.7-7.9-2.2c-1.9-1.5-2.8-3.7-2.8-6.8c0-1.9,0.4-3.4,1.1-4.6c0.7-1.2,1.7-2.1,2.8-2.8c1.1-0.7,2.4-1.2,3.8-1.5
			c1.4-0.3,2.7-0.5,4-0.6l3.7-0.3c1.7-0.1,3-0.3,4-0.6c1-0.3,1.7-0.6,2.2-1.1c0.5-0.5,0.8-1.1,0.9-1.8c0.1-0.7,0.2-1.7,0.2-2.8
			c0-0.9-0.2-1.7-0.5-2.4c-0.3-0.7-0.8-1.4-1.5-2c-0.7-0.6-1.6-1-2.7-1.4c-1.1-0.3-2.5-0.5-4.1-0.5c-2.9,0-5.2,0.7-6.9,2.1
			c-1.8,1.4-2.7,3.5-2.9,6.4h-2.4c0.2-3.5,1.3-6.1,3.4-7.9c2.1-1.8,5.1-2.6,8.9-2.6c3.8,0,6.6,0.8,8.4,2.3c1.8,1.5,2.6,3.5,2.6,5.9
			v18.5c0,0.5,0,0.9,0,1.4c0,0.5,0.1,0.9,0.2,1.2s0.3,0.7,0.6,0.9c0.3,0.2,0.7,0.3,1.2,0.3c0.4,0,1-0.1,1.7-0.2v2
			c-0.6,0.2-1.3,0.2-1.9,0.2c-1,0-1.7-0.1-2.3-0.4s-1-0.6-1.3-1c-0.3-0.4-0.5-0.9-0.6-1.5c-0.1-0.6-0.2-1.2-0.2-1.8V187.7z
			 M392.2,175.9c-0.6,0.7-1.5,1.2-2.6,1.4c-1.2,0.2-2.5,0.4-3.9,0.6l-4,0.4c-1.2,0.1-2.3,0.3-3.5,0.5c-1.2,0.2-2.2,0.6-3.1,1.1
			c-0.9,0.5-1.7,1.3-2.3,2.2c-0.6,0.9-0.9,2.1-0.9,3.6c0,2.4,0.7,4.1,2.2,5.2c1.5,1.1,3.5,1.7,6.1,1.7c2.7,0,4.8-0.5,6.4-1.5
			c1.6-1,2.8-2.1,3.6-3.3c0.8-1.3,1.4-2.5,1.6-3.7c0.2-1.2,0.3-2,0.3-2.4V175.9z"/>
		<path d="M403.7,169.2h0.2c0.3-1,0.8-2,1.6-2.9c0.8-0.9,1.7-1.7,2.8-2.4c1.1-0.7,2.3-1.2,3.7-1.5c1.3-0.4,2.7-0.5,4.2-0.5v2.4
			c-1.2-0.2-2.7,0-4.2,0.4c-1.6,0.4-3.1,1.3-4.6,2.7c-0.6,0.6-1.1,1.2-1.5,1.8c-0.4,0.6-0.8,1.2-1.1,1.9c-0.3,0.7-0.5,1.5-0.7,2.4
			s-0.3,1.9-0.3,3.1V194h-2.4v-31.9h2.4V169.2z"/>
		<path d="M441.8,187.2h-0.1c-1.3,2.5-3,4.4-5,5.7s-4.4,1.9-7.3,1.9c-2.4,0-4.5-0.5-6.2-1.4s-3.2-2.1-4.3-3.7
			c-1.1-1.5-1.9-3.3-2.5-5.3c-0.5-2-0.8-4.1-0.8-6.3c0-2.4,0.3-4.6,0.9-6.6s1.5-3.8,2.6-5.3c1.2-1.5,2.7-2.7,4.4-3.5
			c1.8-0.9,3.9-1.3,6.3-1.3c1.3,0,2.5,0.2,3.8,0.5c1.2,0.4,2.4,0.9,3.4,1.5c1.1,0.7,2,1.5,2.8,2.5c0.8,1,1.4,2.1,1.8,3.3h0.1v-19.5
			h2.4V194h-2.4V187.2z M429.9,192.7c2,0,3.8-0.4,5.2-1.2c1.5-0.8,2.7-1.9,3.7-3.3c1-1.4,1.7-2.9,2.2-4.7c0.5-1.8,0.7-3.5,0.7-5.4
			c0-1.9-0.2-3.7-0.7-5.4c-0.5-1.8-1.2-3.3-2.1-4.7c-1-1.4-2.2-2.5-3.7-3.3c-1.5-0.8-3.3-1.2-5.3-1.2c-2.1,0-3.9,0.4-5.4,1.2
			s-2.7,1.9-3.7,3.3c-1,1.4-1.7,2.9-2.1,4.7c-0.4,1.8-0.7,3.6-0.7,5.5c0,1.9,0.2,3.7,0.7,5.4c0.5,1.8,1.2,3.3,2.2,4.7
			c1,1.4,2.2,2.4,3.7,3.3C426.1,192.3,427.9,192.7,429.9,192.7z"/>
	</g>
</g>
<g id="Layer_1">
	<rect x="30" y="23" class="st0" width="82" height="160"/>
	<g>
		<rect x="110.5" y="142.2" class="st1" width="78.4" height="39.2"/>
	</g>
	<g>
		<rect x="110.5" y="103" class="st2" width="78.4" height="39.2"/>
	</g>
	<g>
		<rect x="110.5" y="24.6" class="st3" width="78.4" height="39.2"/>
	</g>
	<g>
		<rect x="110.5" y="63.8" class="st4" width="78.4" height="39.2"/>
	</g>
	<g>
		<path class="st5" d="M188.4,24.6v156.8H31.6V24.6H188.4 M190,11H30c-6.6,0-12,5.4-12,12v160c0,6.6,5.4,12,12,12h160
			c6.6,0,12-5.4,12-12V23C202,16.4,196.6,11,190,11L190,11z"/>
	</g>
	<rect x="42.6" y="58.6" class="st6" width="57.5" height="11"/>
	<rect x="42.6" y="96.2" class="st6" width="57.5" height="11"/>
	<rect x="42.6" y="136.5" class="st6" width="57.5" height="11"/>
</g>
</svg>
